<?xml version="1.0" encoding="UTF-8"?>
<svg width="45px" height="37px" viewBox="0 0 45 37" version="1.1" xmlns="http://www.w3.org/2000/svg" xmlns:xlink="http://www.w3.org/1999/xlink">
    <title>04DAB640-4C9F-4400-B00E-6CA34DF22F6E</title>
    <g id="Motion-Graphics" stroke="none" stroke-width="1" fill="none" fill-rule="evenodd">
        <g id="main-page" transform="translate(-740.000000, -749.000000)" fill="#5CB3BB" stroke="#000000" stroke-width="1.5">
            <g id="play" transform="translate(762.478366, 767.394924) rotate(-90.000000) translate(-762.478366, -767.394924) translate(744.778108, 745.394924)">
                <path d="M16.9613925,8.71296966 C17.7713604,8.52387748 18.6534646,8.64377766 19.4157218,9.11748992 C19.8396408,9.38093856 20.1971868,9.73848457 20.4606355,10.1624036 L20.4606355,10.1624036 L35.2652952,33.9847942 C35.7390075,34.7470514 35.8589076,35.6291556 35.6698155,36.4391235 C35.4807233,37.2490915 34.9826387,37.9869232 34.2203815,38.4606355 C33.7054246,38.7806605 33.1112152,38.950258 32.5049177,38.950258 L32.5049177,38.950258 L2.89559828,38.950258 C1.99813556,38.950258 1.18563556,38.5864894 0.59750124,37.998355 C0.00936691961,37.4102207 -0.354401721,36.5977207 -0.354401721,35.700258 C-0.354401721,35.0939605 -0.184804265,34.4997511 0.135220794,33.9847942 L0.135220794,33.9847942 L14.9398805,10.1624036 C15.4135928,9.40014638 16.1514245,8.90206184 16.9613925,8.71296966 Z" transform="translate(17.700258, 22.000000) rotate(-270.000000) translate(-17.700258, -22.000000) "></path>
            </g>
        </g>
    </g>
</svg>