<?xml version="1.0" encoding="UTF-8"?>
<svg width="22px" height="25px" viewBox="0 0 22 25" version="1.1" xmlns="http://www.w3.org/2000/svg" xmlns:xlink="http://www.w3.org/1999/xlink">
    <title>49158419-2801-45A6-A848-885E41F4E586</title>
    <g id="Motion-Graphics" stroke="none" stroke-width="1" fill="none" fill-rule="evenodd">
        <g id="first-page" transform="translate(-1351.000000, -1009.000000)" fill="#FFFFFF" stroke="#000000" stroke-width="1.5">
            <g id="Group-7" transform="translate(522.057540, 857.500000)">
                <g id="Group-8" transform="translate(817.742976, 143.500000)">
                    <path d="M30.449972,9.02378612 C31.1133747,9.21240891 31.5223513,9.51966197 31.7644628,9.84111748 C32.1062933,10.2949714 32.1651492,10.8118018 32.008668,11.305199 L32.008668,11.305199 L24.0471112,30.3288257 C23.9249779,30.6203877 23.7297375,30.8663055 23.4879812,31.0489464 C23.2312916,31.242869 22.9221104,31.3653414 22.5923015,31.3954418 L22.5923015,31.3954418 L19.8038876,31.402688 C19.4373614,31.402688 19.0902561,31.2884674 18.8030877,31.0882713 C18.5159193,30.8880753 18.2886876,30.6019037 18.1619085,30.2580018 L18.1619085,30.2580018 L13.0212654,16.3134515 C12.8541126,15.8600315 12.8865689,15.3817847 13.0741684,14.9751046 C13.2793601,14.5302882 13.6701563,14.1710903 14.1883721,14.0236449 L14.1883721,14.0236449 L16.2111671,13.9581916 C16.5827764,13.9552865 16.9349954,14.0698478 17.225765,14.2725543 C17.5129334,14.4727504 17.7401651,14.758922 17.8669581,15.1028618 L17.8669581,15.1028618 L21.2546209,24.2937865 L27.2020267,10.0981288 C27.32416,9.80656677 27.5194004,9.56064896 27.7611567,9.37800812 C28.0176532,9.18423138 28.3265623,9.06179738 28.6560921,9.03158083 L28.6560921,9.03158083 Z" id="Combined-Shape"></path>
                </g>
            </g>
        </g>
    </g>
</svg>