<?xml version="1.0" encoding="UTF-8"?>
<svg width="51px" height="34px" viewBox="0 0 51 34" version="1.1" xmlns="http://www.w3.org/2000/svg" xmlns:xlink="http://www.w3.org/1999/xlink">
    <title>D3BBE51D-8E45-44AD-AFA2-BF14723FE074</title>
    <g id="Motion-Graphics" stroke="none" stroke-width="1" fill="none" fill-rule="evenodd">
        <g id="first-page" transform="translate(-542.000000, -1006.000000)" fill="#FFFFFF" stroke="#000000" stroke-width="1.5">
            <g id="Group-7" transform="translate(522.057540, 859.500000)">
                <g id="Group-9" transform="translate(14.942460, 143.500000)">
                    <g id="Group-12" transform="translate(6.166861, 4.277580)">
                        <rect id="Rectangle" x="8.32758414" y="5.93661633" width="4" height="19.5716069" rx="2"></rect>
                        <rect id="Rectangle-Copy-19" x="15.1980797" y="5.93661633" width="4" height="12.3357563" rx="2"></rect>
                        <path d="M7.0865446,0 C8.1911141,0 9.0865446,0.8954305 9.0865446,2 C9.0865446,3.1045695 8.1911141,4 7.0865446,4 L4,3.999 L4,7.32758414 C4,8.43215364 3.1045695,9.32758414 2,9.32758414 C0.8954305,9.32758414 1.3527075e-16,8.43215364 0,7.32758414 L0,2 C-1.3527075e-16,0.8954305 0.8954305,2.02906125e-16 2,0 L2.08207516,0.0016298773 C2.10910353,0.000546743996 2.13626995,-4.33115681e-16 2.16356408,-4.4408921e-16 L7.0865446,0 Z" id="Combined-Shape" stroke-linejoin="round"></path>
                        <path d="M46.9073179,22.3279638 C48.0118874,22.3279638 48.9073179,23.2233943 48.9073179,24.3279638 C48.9073179,25.4325333 48.0118874,26.3279638 46.9073179,26.3279638 L43.8207733,26.3269638 L43.8207733,29.6555479 C43.8207733,30.7601174 42.9253428,31.6555479 41.8207733,31.6555479 C40.7162038,31.6555479 39.8207733,30.7601174 39.8207733,29.6555479 L39.8207733,24.3279638 C39.8207733,23.2233943 40.7162038,22.3279638 41.8207733,22.3279638 L41.9028485,22.3295937 C41.9298768,22.3285105 41.9570433,22.3279638 41.9843374,22.3279638 L46.9073179,22.3279638 Z" id="Combined-Shape-Copy-5" stroke-linejoin="round" transform="translate(44.364046, 26.991756) rotate(-180.000000) translate(-44.364046, -26.991756) "></path>
                        <path d="M46.7867981,-2.72848411e-12 C47.8913676,-2.72848411e-12 48.7867981,0.8954305 48.7867981,2 C48.7867981,3.1045695 47.8913676,4 46.7867981,4 L43.7002535,3.999 L43.7002535,7.32758414 C43.7002535,8.43215364 42.804823,9.32758414 41.7002535,9.32758414 C40.595684,9.32758414 39.7002535,8.43215364 39.7002535,7.32758414 L39.7002535,2 C39.7002535,0.8954305 40.595684,-2.7282812e-12 41.7002535,-2.72848411e-12 L41.7823287,0.0016298773 C41.8093571,0.000546743993 41.8365235,-2.72891722e-12 41.8638176,-2.72892819e-12 L46.7867981,-2.72848411e-12 Z" id="Combined-Shape-Copy-4" stroke-linejoin="round" transform="translate(44.243526, 4.663792) rotate(-270.000000) translate(-44.243526, -4.663792) "></path>
                        <path d="M7.20706437,22.3279638 C8.31163387,22.3279638 9.20706437,23.2233943 9.20706437,24.3279638 C9.20706437,25.4325333 8.31163387,26.3279638 7.20706437,26.3279638 L4.12051977,26.3269638 L4.12051977,29.6555479 C4.12051977,30.7601174 3.22508927,31.6555479 2.12051977,31.6555479 C1.01595027,31.6555479 0.120519769,30.7601174 0.120519769,29.6555479 L0.120519769,24.3279638 C0.120519769,23.2233943 1.01595027,22.3279638 2.12051977,22.3279638 L2.20259493,22.3295937 C2.2296233,22.3285105 2.25678972,22.3279638 2.28408384,22.3279638 L7.20706437,22.3279638 Z" id="Combined-Shape-Copy-6" stroke-linejoin="round" transform="translate(4.663792, 26.991756) rotate(-90.000000) translate(-4.663792, -26.991756) "></path>
                        <circle id="Oval" cx="17.1980797" cy="23.5082232" r="2"></circle>
                        <circle id="Oval-Copy-3" transform="translate(31.203635, 7.936616) rotate(-180.000000) translate(-31.203635, -7.936616) " cx="31.2036348" cy="7.93661633" r="2"></circle>
                        <rect id="Rectangle-Copy-20" transform="translate(31.203635, 19.161468) rotate(-180.000000) translate(-31.203635, -19.161468) " x="29.2036348" y="12.8147134" width="4" height="12.6935098" rx="2"></rect>
                        <rect id="Rectangle-Copy-17" x="21.9521035" y="5.93661633" width="4" height="19.5716069" rx="2"></rect>
                        <rect id="Rectangle-Copy-18" x="35.9576586" y="5.93661633" width="4" height="19.5716069" rx="2"></rect>
                    </g>
                </g>
            </g>
        </g>
    </g>
</svg>