<?xml version="1.0" encoding="UTF-8"?>
<svg width="17px" height="21px" viewBox="0 0 17 21" version="1.1" xmlns="http://www.w3.org/2000/svg" xmlns:xlink="http://www.w3.org/1999/xlink">
    <title>D6B67B1C-8022-428F-9340-6CB93876BD76</title>
    <g id="Motion-Graphics" stroke="none" stroke-width="1" fill="none" fill-rule="evenodd">
        <g id="Tutorial-page-Copy-33" transform="translate(-285.000000, -637.000000)" fill="#FFFFFF" stroke="#000000" stroke-width="1.5">
            <g id="skip-right-active" transform="translate(272.000000, 627.500000)">
                <g id="Group-7" transform="translate(13.062107, 10.153846)">
                    <g id="play-copy">
                        <path d="M7.94209487,3.51099448 L16.269504,16.7151295 C16.3056854,16.7739242 16.3146102,16.8418183 16.299791,16.904059 C16.2849718,16.9662997 16.2464085,17.022887 16.1876138,17.0590684 C16.1482119,17.0833158 16.1028544,17.0961538 16.0565894,17.0961538 L16.0565894,17.0961538 L-0.0565894213,17.0961538 C-0.125625015,17.0961538 -0.188125015,17.0681716 -0.233366117,17.0229305 C-0.278607218,16.9776894 -0.306589421,16.9151894 -0.306589421,16.8461538 C-0.306589421,16.7998889 -0.293751339,16.7545314 -0.269504001,16.7151295 L-0.269504001,16.7151295 L7.78708542,3.62317168 C7.8232668,3.56437694 7.87985416,3.5258137 7.94209487,3.51099448 L7.94209487,3.51099448 Z" id="play" transform="translate(8.000000, 9.846154) rotate(-270.000000) translate(-8.000000, -9.846154) "></path>
                    </g>
                    <rect id="Rectangle" x="11.8572579" y="0.75" width="3.39274205" height="18.1923077" rx="1"></rect>
                </g>
            </g>
        </g>
    </g>
</svg>