<?xml version="1.0" encoding="UTF-8"?>
<svg width="785px" height="20px" viewBox="0 0 785 20" version="1.1" xmlns="http://www.w3.org/2000/svg" xmlns:xlink="http://www.w3.org/1999/xlink">
    <title>5B4B253B-4362-42B7-AEDB-4B18B1C2F6C8</title>
    <g id="Motion-Graphics" stroke="none" stroke-width="1" fill="none" fill-rule="evenodd">
        <g id="main-page" transform="translate(-565.000000, -699.000000)" fill="#FFFFFF" stroke="#000000" stroke-width="1.5">
            <g id="Group-15" transform="translate(565.112255, 699.726444)">
                <g id="Group-11" transform="translate(708.539654, 9.422104) rotate(-180.000000) translate(-708.539654, -9.422104) translate(632.890269, 0.000000)">
                    <rect id="Rectangle" transform="translate(148.985083, 9.422104) rotate(-180.000000) translate(-148.985083, -9.422104) " x="147.421394" y="0.75" width="3.12737633" height="17.3442074" rx="1"></rect>
                    <rect id="Rectangle-Copy-2" transform="translate(132.688261, 12.722104) rotate(-180.000000) translate(-132.688261, -12.722104) " x="131.124573" y="7.35" width="3.12737633" height="10.7442074" rx="1"></rect>
                    <rect id="Rectangle-Copy-6" transform="translate(67.500975, 12.722104) rotate(-180.000000) translate(-67.500975, -12.722104) " x="65.9372864" y="7.35" width="3.12737633" height="10.7442074" rx="1"></rect>
                    <rect id="Rectangle-Copy-3" transform="translate(116.391439, 12.722104) rotate(-180.000000) translate(-116.391439, -12.722104) " x="114.827751" y="7.35" width="3.12737633" height="10.7442074" rx="1"></rect>
                    <rect id="Rectangle-Copy-7" transform="translate(51.204153, 12.722104) rotate(-180.000000) translate(-51.204153, -12.722104) " x="49.6404648" y="7.35" width="3.12737633" height="10.7442074" rx="1"></rect>
                    <rect id="Rectangle-Copy-4" transform="translate(100.094618, 12.722104) rotate(-180.000000) translate(-100.094618, -12.722104) " x="98.5309296" y="7.35" width="3.12737633" height="10.7442074" rx="1"></rect>
                    <rect id="Rectangle-Copy-8" transform="translate(34.907331, 12.722104) rotate(-180.000000) translate(-34.907331, -12.722104) " x="33.3436432" y="7.35" width="3.12737633" height="10.7442074" rx="1"></rect>
                    <rect id="Rectangle-Copy-5" transform="translate(83.797796, 12.722104) rotate(-180.000000) translate(-83.797796, -12.722104) " x="82.234108" y="7.35" width="3.12737633" height="10.7442074" rx="1"></rect>
                    <rect id="Rectangle-Copy-9" transform="translate(18.610510, 12.722104) rotate(-180.000000) translate(-18.610510, -12.722104) " x="17.0468216" y="7.35" width="3.12737633" height="10.7442074" rx="1"></rect>
                    <rect id="Rectangle-Copy-10" transform="translate(2.313688, 12.722104) rotate(-180.000000) translate(-2.313688, -12.722104) " x="0.75" y="7.35" width="3.12737633" height="10.7442074" rx="1"></rect>
                </g>
                <g id="Group-11-Copy" transform="translate(546.039654, 9.422104) rotate(-180.000000) translate(-546.039654, -9.422104) translate(470.390269, 0.000000)">
                    <rect id="Rectangle" transform="translate(148.985083, 9.422104) rotate(-180.000000) translate(-148.985083, -9.422104) " x="147.421394" y="0.75" width="3.12737633" height="17.3442074" rx="1"></rect>
                    <rect id="Rectangle-Copy-2" transform="translate(132.688261, 12.722104) rotate(-180.000000) translate(-132.688261, -12.722104) " x="131.124573" y="7.35" width="3.12737633" height="10.7442074" rx="1"></rect>
                    <rect id="Rectangle-Copy-6" transform="translate(67.500975, 12.722104) rotate(-180.000000) translate(-67.500975, -12.722104) " x="65.9372864" y="7.35" width="3.12737633" height="10.7442074" rx="1"></rect>
                    <rect id="Rectangle-Copy-3" transform="translate(116.391439, 12.722104) rotate(-180.000000) translate(-116.391439, -12.722104) " x="114.827751" y="7.35" width="3.12737633" height="10.7442074" rx="1"></rect>
                    <rect id="Rectangle-Copy-7" transform="translate(51.204153, 12.722104) rotate(-180.000000) translate(-51.204153, -12.722104) " x="49.6404648" y="7.35" width="3.12737633" height="10.7442074" rx="1"></rect>
                    <rect id="Rectangle-Copy-4" transform="translate(100.094618, 12.722104) rotate(-180.000000) translate(-100.094618, -12.722104) " x="98.5309296" y="7.35" width="3.12737633" height="10.7442074" rx="1"></rect>
                    <rect id="Rectangle-Copy-8" transform="translate(34.907331, 12.722104) rotate(-180.000000) translate(-34.907331, -12.722104) " x="33.3436432" y="7.35" width="3.12737633" height="10.7442074" rx="1"></rect>
                    <rect id="Rectangle-Copy-5" transform="translate(83.797796, 12.722104) rotate(-180.000000) translate(-83.797796, -12.722104) " x="82.234108" y="7.35" width="3.12737633" height="10.7442074" rx="1"></rect>
                    <rect id="Rectangle-Copy-9" transform="translate(18.610510, 12.722104) rotate(-180.000000) translate(-18.610510, -12.722104) " x="17.0468216" y="7.35" width="3.12737633" height="10.7442074" rx="1"></rect>
                    <rect id="Rectangle-Copy-10" transform="translate(2.313688, 12.722104) rotate(-180.000000) translate(-2.313688, -12.722104) " x="0.75" y="7.35" width="3.12737633" height="10.7442074" rx="1"></rect>
                </g>
                <g id="Group-11-Copy-2" transform="translate(383.539654, 9.422104) rotate(-180.000000) translate(-383.539654, -9.422104) translate(307.890269, 0.000000)">
                    <rect id="Rectangle" transform="translate(148.985083, 9.422104) rotate(-180.000000) translate(-148.985083, -9.422104) " x="147.421394" y="0.75" width="3.12737633" height="17.3442074" rx="1"></rect>
                    <rect id="Rectangle-Copy-2" transform="translate(132.688261, 12.722104) rotate(-180.000000) translate(-132.688261, -12.722104) " x="131.124573" y="7.35" width="3.12737633" height="10.7442074" rx="1"></rect>
                    <rect id="Rectangle-Copy-6" transform="translate(67.500975, 12.722104) rotate(-180.000000) translate(-67.500975, -12.722104) " x="65.9372864" y="7.35" width="3.12737633" height="10.7442074" rx="1"></rect>
                    <rect id="Rectangle-Copy-3" transform="translate(116.391439, 12.722104) rotate(-180.000000) translate(-116.391439, -12.722104) " x="114.827751" y="7.35" width="3.12737633" height="10.7442074" rx="1"></rect>
                    <rect id="Rectangle-Copy-7" transform="translate(51.204153, 12.722104) rotate(-180.000000) translate(-51.204153, -12.722104) " x="49.6404648" y="7.35" width="3.12737633" height="10.7442074" rx="1"></rect>
                    <rect id="Rectangle-Copy-4" transform="translate(100.094618, 12.722104) rotate(-180.000000) translate(-100.094618, -12.722104) " x="98.5309296" y="7.35" width="3.12737633" height="10.7442074" rx="1"></rect>
                    <rect id="Rectangle-Copy-8" transform="translate(34.907331, 12.722104) rotate(-180.000000) translate(-34.907331, -12.722104) " x="33.3436432" y="7.35" width="3.12737633" height="10.7442074" rx="1"></rect>
                    <rect id="Rectangle-Copy-5" transform="translate(83.797796, 12.722104) rotate(-180.000000) translate(-83.797796, -12.722104) " x="82.234108" y="7.35" width="3.12737633" height="10.7442074" rx="1"></rect>
                    <rect id="Rectangle-Copy-9" transform="translate(18.610510, 12.722104) rotate(-180.000000) translate(-18.610510, -12.722104) " x="17.0468216" y="7.35" width="3.12737633" height="10.7442074" rx="1"></rect>
                    <rect id="Rectangle-Copy-10" transform="translate(2.313688, 12.722104) rotate(-180.000000) translate(-2.313688, -12.722104) " x="0.75" y="7.35" width="3.12737633" height="10.7442074" rx="1"></rect>
                </g>
                <g id="Group-11-Copy-3" transform="translate(221.039654, 9.422104) rotate(-180.000000) translate(-221.039654, -9.422104) translate(145.390269, 0.000000)">
                    <rect id="Rectangle" transform="translate(148.985083, 9.422104) rotate(-180.000000) translate(-148.985083, -9.422104) " x="147.421394" y="0.75" width="3.12737633" height="17.3442074" rx="1"></rect>
                    <rect id="Rectangle-Copy-2" transform="translate(132.688261, 12.722104) rotate(-180.000000) translate(-132.688261, -12.722104) " x="131.124573" y="7.35" width="3.12737633" height="10.7442074" rx="1"></rect>
                    <rect id="Rectangle-Copy-6" transform="translate(67.500975, 12.722104) rotate(-180.000000) translate(-67.500975, -12.722104) " x="65.9372864" y="7.35" width="3.12737633" height="10.7442074" rx="1"></rect>
                    <rect id="Rectangle-Copy-3" transform="translate(116.391439, 12.722104) rotate(-180.000000) translate(-116.391439, -12.722104) " x="114.827751" y="7.35" width="3.12737633" height="10.7442074" rx="1"></rect>
                    <rect id="Rectangle-Copy-7" transform="translate(51.204153, 12.722104) rotate(-180.000000) translate(-51.204153, -12.722104) " x="49.6404648" y="7.35" width="3.12737633" height="10.7442074" rx="1"></rect>
                    <rect id="Rectangle-Copy-4" transform="translate(100.094618, 12.722104) rotate(-180.000000) translate(-100.094618, -12.722104) " x="98.5309296" y="7.35" width="3.12737633" height="10.7442074" rx="1"></rect>
                    <rect id="Rectangle-Copy-8" transform="translate(34.907331, 12.722104) rotate(-180.000000) translate(-34.907331, -12.722104) " x="33.3436432" y="7.35" width="3.12737633" height="10.7442074" rx="1"></rect>
                    <rect id="Rectangle-Copy-5" transform="translate(83.797796, 12.722104) rotate(-180.000000) translate(-83.797796, -12.722104) " x="82.234108" y="7.35" width="3.12737633" height="10.7442074" rx="1"></rect>
                    <rect id="Rectangle-Copy-9" transform="translate(18.610510, 12.722104) rotate(-180.000000) translate(-18.610510, -12.722104) " x="17.0468216" y="7.35" width="3.12737633" height="10.7442074" rx="1"></rect>
                    <rect id="Rectangle-Copy-10" transform="translate(2.313688, 12.722104) rotate(-180.000000) translate(-2.313688, -12.722104) " x="0.75" y="7.35" width="3.12737633" height="10.7442074" rx="1"></rect>
                </g>
                <g id="Group-11-Copy-4" transform="translate(67.500975, 6.122104) rotate(-180.000000) translate(-67.500975, -6.122104) translate(0.000000, 0.000000)">
                    <rect id="Rectangle-Copy-2" transform="translate(132.688261, 6.122104) rotate(-180.000000) translate(-132.688261, -6.122104) " x="131.124573" y="0.75" width="3.12737633" height="10.7442074" rx="1"></rect>
                    <rect id="Rectangle-Copy-6" transform="translate(67.500975, 6.122104) rotate(-180.000000) translate(-67.500975, -6.122104) " x="65.9372864" y="0.75" width="3.12737633" height="10.7442074" rx="1"></rect>
                    <rect id="Rectangle-Copy-3" transform="translate(116.391439, 6.122104) rotate(-180.000000) translate(-116.391439, -6.122104) " x="114.827751" y="0.75" width="3.12737633" height="10.7442074" rx="1"></rect>
                    <rect id="Rectangle-Copy-7" transform="translate(51.204153, 6.122104) rotate(-180.000000) translate(-51.204153, -6.122104) " x="49.6404648" y="0.75" width="3.12737633" height="10.7442074" rx="1"></rect>
                    <rect id="Rectangle-Copy-4" transform="translate(100.094618, 6.122104) rotate(-180.000000) translate(-100.094618, -6.122104) " x="98.5309296" y="0.75" width="3.12737633" height="10.7442074" rx="1"></rect>
                    <rect id="Rectangle-Copy-8" transform="translate(34.907331, 6.122104) rotate(-180.000000) translate(-34.907331, -6.122104) " x="33.3436432" y="0.75" width="3.12737633" height="10.7442074" rx="1"></rect>
                    <rect id="Rectangle-Copy-5" transform="translate(83.797796, 6.122104) rotate(-180.000000) translate(-83.797796, -6.122104) " x="82.234108" y="0.75" width="3.12737633" height="10.7442074" rx="1"></rect>
                    <rect id="Rectangle-Copy-9" transform="translate(18.610510, 6.122104) rotate(-180.000000) translate(-18.610510, -6.122104) " x="17.0468216" y="0.75" width="3.12737633" height="10.7442074" rx="1"></rect>
                    <rect id="Rectangle-Copy-10" transform="translate(2.313688, 6.122104) rotate(-180.000000) translate(-2.313688, -6.122104) " x="0.75" y="0.75" width="3.12737633" height="10.7442074" rx="1"></rect>
                </g>
            </g>
        </g>
    </g>
</svg>